<svg xmlns="http://www.w3.org/2000/svg" viewBox="0 0 1920 1083"><defs><style>.cls-1{fill:#0c0c12;}.cls-2{fill:#1b1b20;}.cls-3{fill:#16161b;}.cls-4{fill:#111116;}.cls-5{fill:#141319;}.cls-6{fill:#0f0e14;}</style></defs><title>Asset 3</title><g id="Layer_2" data-name="Layer 2"><g id="Background_Dark" data-name="Background Dark"><polygon class="cls-1" points="388 1081 1044.62 799.14 1804 1083 388 1081"/><polygon class="cls-2" points="1469 0 703.64 412.76 1044.62 799.14 1469 0"/><polyline class="cls-3" points="1469 0 703.64 412.76 503.07 0 1469 0"/><polyline class="cls-4" points="1469 0 1044.62 799.14 1804 1083"/><polygon class="cls-2" points="1469 0 1920 0 1920 1083 1804 1083 1469 0"/><polygon class="cls-5" points="1045 799 704 413 388 1081 1045 799"/><polyline class="cls-6" points="703.64 412.76 503.07 0 0 0 388 1081 703.64 412.76"/><polygon class="cls-1" points="0 1083 0 0 388 1081 0 1083"/></g></g></svg>