<svg xmlns="http://www.w3.org/2000/svg" viewBox="0 0 1083 1919"><defs><style>.cls-1{fill:#0f0e14;}.cls-2{fill:#111116;}.cls-3{fill:#16161b;}.cls-4{fill:#0c0c12;}.cls-5{fill:#1b1b20;}.cls-6{fill:#09090f;}.cls-7{fill:#07070d;}.cls-8{fill:#04040a;}</style></defs><title>Asset 1</title><g id="Layer_2" data-name="Layer 2"><g id="Background_Dark" data-name="Background Dark"><polygon class="cls-1" points="2 0 116.75 0 316.77 411.62 2 1078 2 0"/><polygon class="cls-2" points="1081 0 656.8 796.92 1080.95 954.83 1081 0"/><polygon class="cls-3" points="116.75 0 1081 0 316.77 411.62 116.75 0"/><polygon class="cls-4" points="2 1078 656.8 796.92 1080.95 954.83 1081 1078 2 1078"/><polygon class="cls-5" points="1081 0 316.77 411.62 656.8 796.92 1081 0"/><polygon class="cls-2" points="2 1078 316.77 411.62 656.8 796.92 2 1078"/><polygon class="cls-6" points="1 1078 306.77 1489.62 0 1919 1 1078"/><polygon class="cls-7" points="1083 1078 646.8 1918.92 1080 1919 1083 1078"/><polygon class="cls-4" points="2 1078 1083 1078 306.77 1489.62 2 1078"/><polygon class="cls-6" points="1083 1078 306.77 1489.62 646.8 1918.92 1083 1078"/><polygon class="cls-8" points="0 1919 306.77 1489.62 646.8 1918.92 0 1919"/></g></g></svg>