<svg xmlns="http://www.w3.org/2000/svg" viewBox="0 0 201.3 323.87"><defs><style>.cls-1{fill:#ffcc80;}.cls-2{fill:#ffb240;}.cls-3{fill:#1d6fb2;}.cls-4{fill:#337dba;}.cls-5{fill:#5593c6;}.cls-6{fill:#8eb7d9;}.cls-7{fill:#3f85be;}.cls-8{fill:#6ca1cd;}.cls-9{fill:#5c65ba;}.cls-10{fill:#727ac3;}.cls-11{fill:#515bb6;}.cls-12{fill:#2632a3;}.cls-13{fill:#3b47ac;}.cls-14{fill:#9299d1;}</style></defs><title>Asset 4</title><g id="Layer_2" data-name="Layer 2"><g id="v_dot_Dark" data-name="v dot Dark"><polygon class="cls-1" points="100.65 24.3 110.75 64.08 98.28 49.23 100.65 24.3"/><polygon class="cls-1" points="124.4 34.98 110.75 64.08 156.47 24.3 124.4 34.98"/><polygon class="cls-1" points="83.43 48.64 110.75 64.08 79.27 60.52 83.43 48.64"/><polygon class="cls-1" points="82.84 76.55 110.75 64.08 67.99 69.42 82.84 76.55"/><polygon class="cls-1" points="99.46 93.18 110.75 64.08 94.12 78.92 99.46 93.18"/><polygon class="cls-1" points="109.56 101.49 110.75 64.08 121.43 97.33 109.56 101.49"/><polygon class="cls-1" points="128.56 86.05 110.75 64.08 140.44 84.86 128.56 86.05"/><polygon class="cls-1" points="134.5 70.61 110.75 64.08 138.06 52.8 134.5 70.61"/><polygon class="cls-2" points="82.84 43.89 65.62 35.58 66.21 29.05 82.84 43.89"/><polygon class="cls-2" points="86.99 78.33 79.27 80.11 84.62 85.46 86.99 78.33"/><polygon class="cls-2" points="128.51 101.93 128.94 113.08 133.69 112.52 128.51 101.93"/><polygon class="cls-2" points="136.76 24.62 147.5 10.06 151.24 9.72 136.76 24.62"/><polygon class="cls-2" points="111.34 37.95 108.37 12.42 110.75 5.29 111.34 37.95"/><polygon class="cls-2" points="70.37 52.8 50.18 48.05 47.21 43.3 70.37 52.8"/><polygon class="cls-2" points="89.96 89.02 83.43 97.93 82.84 106.24 89.37 97.33 89.96 89.02"/><polygon class="cls-2" points="133.46 92.47 134.75 98.45 140.88 102.79 142.09 98.81 133.46 92.47"/><polygon class="cls-2" points="141.03 76.55 158.25 77.74 154.69 80.71 154.69 84.27 141.03 76.55"/><polygon class="cls-2" points="120.85 13.28 120.86 0 123.46 4.36 120.85 13.28"/><polygon class="cls-2" points="93.65 30.07 86.97 13.55 90.37 7.7 93.65 30.07"/><polygon class="cls-2" points="120.25 32.01 129.75 13.01 135.09 12.42 120.25 32.01"/><polygon class="cls-2" points="103.62 97.33 100.06 108.62 103.62 111.58 103.62 97.33"/><polygon class="cls-2" points="66.21 79.52 55.52 84.86 56.71 89.61 66.21 79.52"/><polygon class="cls-2" points="145.78 39.14 138.06 48.64 150.53 44.48 158.84 34.39 145.78 39.14"/><polygon class="cls-1" points="108.96 42.11 110.75 64.08 119.06 33.8 108.96 42.11"/><g id="v_right" data-name="v right"><polygon class="cls-3" points="110.45 323.87 125.89 323.87 153.8 267.46 110.45 323.87"/><polygon class="cls-4" points="140.14 270.43 153.8 267.46 110.45 323.87 140.14 270.43"/><polygon class="cls-5" points="172.21 200.95 171.61 168.89 194.77 184.33 172.21 200.95"/><polygon class="cls-6" points="201.3 157.01 171.61 168.89 194.77 184.33 201.3 157.01"/><polygon class="cls-7" points="172.21 203.33 141.62 267.76 154.39 265.08 172.21 203.33"/><polygon class="cls-8" points="194.47 187 154.39 265.08 171.91 203.63 194.47 187"/><polygon class="cls-8" points="172.8 103.57 169.24 165.32 144.3 141.57 172.8 103.57"/><polygon class="cls-6" points="175.77 104.16 198.04 128.21 201.3 154.04 175.77 104.16"/><polygon class="cls-5" points="171.91 165.62 175.77 104.16 201.3 154.04 171.91 165.62"/></g><g id="v_left" data-name="v left"><polygon class="cls-9" points="28.5 149.29 6.53 164.73 0 156.42 28.5 149.29"/><polygon class="cls-10" points="19 130.29 0 156.42 28.5 149.29 19 130.29"/><polygon class="cls-10" points="94.47 184.48 75.12 137.71 44.95 174.64 94.47 184.48"/><polygon class="cls-11" points="50.77 189.97 94.47 184.48 44.95 174.64 50.77 189.97"/><polygon class="cls-11" points="97.39 266.27 115.79 241.93 53.44 198.58 97.39 266.27"/><polygon class="cls-9" points="131.83 279.93 118.76 243.71 100.35 266.87 131.83 279.93"/><polygon class="cls-12" points="108.67 320.9 100.35 266.87 131.83 279.93 108.67 320.9"/><polygon class="cls-9" points="116.39 239.55 51.07 193.23 95.31 186.41 116.39 239.55"/><polygon class="cls-13" points="105.7 317.34 97.39 266.27 53.44 198.58 105.7 317.34"/><polygon class="cls-14" points="20.78 128.51 52.85 119.01 74.23 133.85 20.78 128.51"/><polygon class="cls-9" points="43.05 170.97 20.78 128.51 74.23 133.85 43.05 170.97"/></g></g></g></svg>